<svg xmlns="http://www.w3.org/2000/svg"  viewBox="0 0 48 48" width="48px" height="48px"><path d="M 18.5 5 C 16.585045 5 15 6.5850452 15 8.5 L 15 14 L 9.5 14 C 6.468 14 4 16.468 4 19.5 L 4 23 L 12 23 L 12 22.5 C 12 21.672 12.672 21 13.5 21 L 16.5 21 C 17.328 21 18 21.672 18 22.5 L 18 23 L 30 23 L 30 22.5 C 30 21.672 30.672 21 31.5 21 L 34.5 21 C 35.328 21 36 21.672 36 22.5 L 36 23 L 44 23 L 44 19.5 C 44 16.468 41.532 14 38.5 14 L 33 14 L 33 8.5 C 33 6.5850452 31.414955 5 29.5 5 L 18.5 5 z M 18.5 8 L 29.5 8 C 29.795045 8 30 8.2049548 30 8.5 L 30 14 L 18 14 L 18 8.5 C 18 8.2049548 18.204955 8 18.5 8 z M 4 26 L 4 37.5 C 4 40.532 6.468 43 9.5 43 L 38.5 43 C 41.532 43 44 40.532 44 37.5 L 44 26 L 36 26 L 36 26.5 C 36 27.328 35.328 28 34.5 28 L 31.5 28 C 30.672 28 30 27.328 30 26.5 L 30 26 L 18 26 L 18 26.5 C 18 27.328 17.328 28 16.5 28 L 13.5 28 C 12.672 28 12 27.328 12 26.5 L 12 26 L 4 26 z"/></svg>